{"title":"Bud Spencer Flatfoot in africa (1978)(ENG ITA)(NL SUBS)2Lions-Te","uid":5709447,"size":4681709132,"categoryP":"video","categoryS":"movies_dvdr","magnet":"?xt=urn:btih:048160ad57aada27ff59def729223b02ffe993f7&amp;dn=Bud+Spencer+Flatfoot+in+africa+%281978%29%28ENG+ITA%29%28NL+SUBS%292Lions-Te&amp;tr=udp%3A%2F%2Ftracker.openbittorrent.com%3A80&amp;tr=udp%3A%2F%2Fopen.demonii.com%3A1337&amp;tr=udp%3A%2F%2Ftracker.coppersurfer.tk%3A6969&amp;tr=udp%3A%2F%2Fexodus.desync.com%3A6969","seeders":2,"leechers":0,"uploader":"Pioen","files":50,"time":1279831860,"description":"Bud Spencer :Flatfoot in africa (1978)\n\nPiedone l'Africano (1978)\n\nAlternatieve titels: Inspecteur Platvoet Slaat Alles, Flatfoot in Africa, Inspecteur Bulldozer \n        \n  \n \n  ItaliÃƒÂ« / West-Duitsland\nActie / Komedie\n115 minuten\n\ngeregisseerd door Steno\nmet Bud Spencer, Dagmar Lassander en Werner Pochath\n\nInspecteur Platvoet oftewel Rizzo (Bud Spencer) wordt naar Afrika gestuurd in verband met een heroine en diamantensmokkel. Hij wordt aldaar bijgestaan door een zwart jongetje in zijn strijd tegen de misdaad.\n\nEnglish\n\nCommissary Rizzo in Napoli gets a message from a policeman from South Africa who wants to meet him. Immediatlz before this meeting the south African policeman is killed. Dying he shows Rizzo a picture of his little son Bodo. Riyyo travels to Johannesburg to find out what the policeman was working on and to find Bodo. \n\n\n\nveel kijk plezier\nSpotinformatie \nCategorie : Beeld \nFormaat : DVD5 \nBron : Retail\nAudio : English, Italian\n \nOndertitels : Nederlands (instelbaar)\n\nVideo\nID                               : 224 (0xE0)\nFormat                           : MPEG Video\nFormat version                   : Version 2\nFormat profile                   : Main@Main\nFormat settings, Matrix          : Default\nDuration                         : 29mn 41s\nBit rate mode                    : Variable\nBit rate                         : 4 246 Kbps\nNominal bit rate                 : 8 000 Kbps\nWidth                            : 720 pixels\nHeight                           : 576 pixels\nDisplay aspect ratio             : 16/9\nFrame rate                       : 25.000 fps\nStandard                         : PAL\nColorimetry                      : 4:2:0\nScan type                        : Interlaced\nScan order                       : Top Field First\nBits/(Pixel*Frame)               : 0.410\nStream size                      : 902 MiB (88%)\n\nAudio #1\nID                               : 128 (0x80)\nFormat                           : AC-3\nFormat/Info                      : Audio Coding 3\nDuration                         : 29mn 41s\nBit rate mode                    : Constant\nBit rate                         : 192 Kbps\nChannel(s)                       : 2 channels\nChannel positions                : L R\nSampling rate                    : 48.0 KHz\nVideo delay                      : -80ms\nStream size                      : 40.8 MiB (4%)\n \nGenre : Actie\nKomedie \n\nWeblink : &lt;a href=&quot; http://www.moviemeter.nl/film/32444&quot; rel=&quot;nofollow&quot; target=&quot;_NEW&quot;&gt; http://www.moviemeter.nl/film/32444&lt;/a&gt;\nWeblink : &lt;a href=&quot; http://www.imdb.com/title/tt0076544&quot; rel=&quot;nofollow&quot; target=&quot;_NEW&quot;&gt; http://www.imdb.com/title/tt0076544&lt;/a&gt;\n\n******************************************\n\nBrought to you by \nPioen\n\n2Lions Team\n\nmeer zien??\nKom dan eens kijken op ons forum \n          &lt;a href=&quot;\nhttp://www.2lions-site.nl&quot; rel=&quot;nofollow&quot; target=&quot;_NEW&quot;&gt;\nhttp://www.2lions-site.nl&lt;/a&gt;\n\n\n2Lions the site to be for all your Dutch MOVIES and more\n\n******************************************\n\n\nDON T HIT AND RUN Niet gelijk afhaken als de FILM binnen is blijf seeden. \n\nDon`t quit after you finished the download, but keep seeding\n\n\nThere are fake torrents from uploaders who use our team name.\nThose are not ours, or members from our team.\nWe 2Lions-Team are not responsible for the fake posts on our name\n\nWij 2Lions-Team zijn niet verantwoordelijk voor die zieke FAKE posten die op onze naam worden gedaan","torrent":{"xt":"urn:btih:048160ad57aada27ff59def729223b02ffe993f7","amp;dn":"Bud+Spencer+Flatfoot+in+africa+%281978%29%28ENG+ITA%29%28NL+SUBS%292Lions-Te","amp;tr":["udp%3A%2F%2Ftracker.openbittorrent.com%3A80","udp%3A%2F%2Fopen.demonii.com%3A1337","udp%3A%2F%2Ftracker.coppersurfer.tk%3A6969","udp%3A%2F%2Fexodus.desync.com%3A6969"],"infoHash":"048160ad57aada27ff59def729223b02ffe993f7","infoHashBuffer":{"type":"Buffer","data":[4,129,96,173,87,170,218,39,255,89,222,247,41,34,59,2,255,233,147,247]},"announce":[],"urlList":[]}}